<?xml version="1.0" standalone="no"?>
<!DOCTYPE svg PUBLIC "-//W3C//DTD SVG 20010904//EN"
 "http://www.w3.org/TR/2001/REC-SVG-20010904/DTD/svg10.dtd">
<svg version="1.0" xmlns="http://www.w3.org/2000/svg"
 width="661.000000pt" height="157.000000pt" viewBox="0 0 661.000000 157.000000"
 preserveAspectRatio="xMidYMid meet">

<g transform="translate(0.000000,157.000000) scale(0.100000,-0.100000)"
fill="#000000" stroke="none">
<path d="M1874 1059 c-46 -13 -91 -60 -99 -101 -15 -77 33 -123 182 -177 72
-27 103 -52 103 -86 0 -52 -56 -81 -138 -72 -47 5 -92 40 -92 73 0 9 -11 14
-35 14 -33 0 -35 -2 -29 -27 10 -44 46 -91 84 -110 51 -26 164 -24 210 3 96
56 105 168 18 222 -18 11 -69 34 -112 51 -119 46 -141 77 -91 126 19 20 34 25
75 25 41 0 56 -5 75 -25 14 -13 25 -29 25 -34 0 -6 16 -10 36 -9 33 1 35 3 29
27 -22 88 -130 132 -241 100z"/>
<path d="M5699 1061 c-69 -22 -120 -69 -141 -130 -7 -20 -13 -76 -13 -126 0
-80 4 -96 28 -141 81 -146 284 -151 372 -10 28 47 30 55 30 156 0 101 -2 109
-30 156 -19 31 -47 58 -73 72 -45 25 -131 37 -173 23z m145 -84 c39 -26 60
-83 60 -167 0 -126 -48 -190 -142 -190 -97 0 -142 60 -142 190 0 85 24 151 61
171 56 29 113 28 163 -4z"/>
<path d="M2305 824 c-44 -130 -82 -243 -83 -251 -3 -11 5 -14 34 -11 36 3 38
5 57 61 l19 57 98 0 98 0 19 -57 c19 -56 21 -58 58 -61 28 -3 36 0 33 10 -3 7
-40 120 -83 251 l-77 237 -47 0 -46 0 -80 -236z m167 26 l36 -110 -78 0 -78 0
36 110 c20 61 39 110 42 110 3 0 22 -49 42 -110z"/>
<path d="M2740 810 l0 -250 35 0 35 0 0 192 c0 143 3 189 11 181 7 -7 62 -92
124 -190 l112 -178 42 -3 41 -3 -2 248 -3 248 -35 0 -35 0 -5 -185 c-4 -164
-7 -182 -19 -160 -7 14 -59 98 -115 187 l-101 163 -42 0 -43 0 0 -250z"/>
<path d="M3292 813 l3 -248 115 1 c97 0 121 3 156 21 124 65 168 225 97 355
-47 86 -120 118 -276 118 l-97 0 2 -247z m235 163 c123 -63 123 -269 0 -332
-15 -8 -56 -18 -92 -21 l-64 -6 -3 187 c-2 103 -1 190 2 193 9 10 129 -6 157
-21z"/>
<path d="M3820 810 l0 -250 160 0 160 0 0 30 0 29 -122 3 -123 3 -3 78 -3 77
116 0 115 0 0 30 0 29 -112 3 -113 3 -3 77 -3 77 123 3 123 3 0 25 0 25 -157
3 -158 3 0 -251z"/>
<path d="M4274 1047 c-3 -8 -4 -119 -2 -248 l3 -234 155 0 155 0 3 28 3 27
-120 0 -121 0 0 80 0 80 110 0 110 0 0 30 0 30 -110 0 -110 0 0 80 0 79 118 3
117 3 3 28 3 27 -156 0 c-121 0 -157 -3 -161 -13z"/>
<path d="M4720 810 l0 -250 40 0 40 0 0 95 0 95 63 0 c87 0 130 15 166 56 28
31 31 41 31 99 0 58 -3 68 -31 99 -39 45 -79 56 -206 56 l-103 0 0 -250z m246
157 c31 -37 32 -87 1 -123 -20 -23 -33 -27 -95 -32 l-72 -5 0 98 0 97 71 -4
c63 -3 74 -7 95 -31z"/>
<path d="M5100 1030 l0 -30 80 0 80 0 0 -220 0 -220 35 0 35 0 0 220 0 220 80
0 80 0 0 30 0 30 -195 0 -195 0 0 -30z"/>
<path d="M6100 811 l0 -251 35 0 35 0 0 100 0 100 44 0 44 0 58 -100 59 -100
48 0 47 0 -68 103 -69 102 41 20 c56 28 79 64 80 124 1 54 -17 88 -68 125 -24
18 -45 21 -157 25 l-129 3 0 -251z m230 174 c55 -29 67 -94 26 -142 -22 -25
-31 -28 -105 -31 l-81 -4 0 96 0 96 65 0 c39 0 78 -6 95 -15z"/>
</g>
</svg>
